<?xml version="1.0" encoding="utf-8"?>
<!-- Generator: Adobe Illustrator 24.2.1, SVG Export Plug-In . SVG Version: 6.00 Build 0)  -->
<svg version="1.1" id="Capa_1" xmlns="http://www.w3.org/2000/svg" xmlns:xlink="http://www.w3.org/1999/xlink" x="0px" y="0px"
	 width="512px" height="512px" viewBox="0 0 512 512" style="enable-background:new 0 0 512 512;" xml:space="preserve">
<style type="text/css">
	.st0{fill:none;stroke:#9CC425;stroke-width:10;stroke-linecap:round;stroke-linejoin:round;stroke-miterlimit:10;}
</style>
<path class="st0" d="M14,153.5c0,0,133.5-21.8,177.9,46.1s163.5,237.2,163.5,237.2"/>
<path class="st0" d="M14,260.2h53.8c0,0,42.5,7.1,46.5,33.2c3.8,26,6.4,68.8,91.1,134.2"/>
<path class="st0" d="M231.3,444.8c0,0,75.5,40.8,84.9,44.9"/>
<polyline class="st0" points="441.9,364.8 400.7,364.8 400.7,280.9 495.4,280.9 495.4,364.8 466.7,364.8 "/>
<path class="st0" d="M220.2,241.7l-41.7,45.1c0,0-8,12.9,10.1,39.4c18,26.6,35.4,18.7,35.4,18.7l49.8-25.1"/>
<path class="st0" d="M225.3,293.8l84.2-25L363,253c0,0,23.3-9.9,21.3-53.5"/>
<path class="st0" d="M400.7,322.8c0,0-64.3,22.4-95.9-52.6"/>
<rect x="268.7" y="18.8" class="st0" width="229.2" height="155.7"/>
<rect x="332.8" y="174.4" class="st0" width="103.6" height="25.1"/>
<rect x="304.8" y="53" class="st0" width="155.4" height="63.6"/>
<line class="st0" x1="382.6" y1="84.8" x2="429.6" y2="85.6"/>
<line class="st0" x1="316.2" y1="144.4" x2="332.8" y2="144.4"/>
<line class="st0" x1="436.3" y1="144.4" x2="448" y2="144.4"/>
<polyline class="st0" points="344.7,66.8 332.8,84.8 352.8,82.2 332.8,103.5 "/>
</svg>
