<!--?xml version="1.0" encoding="utf-8"?-->
<!-- Generator: Adobe Illustrator 24.2.1, SVG Export Plug-In . SVG Version: 6.00 Build 0)  -->
<svg version="1.1" id="Capa_1" xmlns="http://www.w3.org/2000/svg" xmlns:xlink="http://www.w3.org/1999/xlink" x="0px" y="0px" width="512px" height="512px" viewBox="0 0 512 512" style="" xml:space="preserve">
<style type="text/css">
	.st0{fill:none;stroke:#9CC425;stroke-width:10;stroke-linecap:round;stroke-linejoin:round;stroke-miterlimit:10;}
</style>
<path class="st0 dNztqdBh_0" d="M14,153.5c0,0,133.5-21.8,177.9,46.1s163.5,237.2,163.5,237.2"></path>
<path class="st0 dNztqdBh_1" d="M14,260.2h53.8c0,0,42.5,7.1,46.5,33.2c3.8,26,6.4,68.8,91.1,134.2"></path>
<path class="st0 dNztqdBh_2" d="M231.3,444.8c0,0,75.5,40.8,84.9,44.9"></path>
<path class="st0 dNztqdBh_3" d="M441.9,364.8L400.7,364.8L400.7,280.9L495.4,280.9L495.4,364.8L466.7,364.8"></path>
<path class="st0 dNztqdBh_4" d="M220.2,241.7l-41.7,45.1c0,0-8,12.9,10.1,39.4c18,26.6,35.4,18.7,35.4,18.7l49.8-25.1"></path>
<path class="st0 dNztqdBh_5" d="M225.3,293.8l84.2-25L363,253c0,0,23.3-9.9,21.3-53.5"></path>
<path class="st0 dNztqdBh_6" d="M400.7,322.8c0,0-64.3,22.4-95.9-52.6"></path>
<path class="st0 dNztqdBh_7" width="229.2" height="155.7" d="M268.7 18.8 L497.9 18.8 L497.9 174.5 L268.7 174.5 Z"></path>
<path class="st0 dNztqdBh_8" width="103.6" height="25.1" d="M332.8 174.4 L436.4 174.4 L436.4 199.5 L332.8 199.5 Z"></path>
<path class="st0 dNztqdBh_9" width="155.4" height="63.6" d="M304.8 53 L460.20000000000005 53 L460.20000000000005 116.6 L304.8 116.6 Z"></path>
<path class="st0 dNztqdBh_10" d="M382.6,84.8L429.6,85.6"></path>
<path class="st0 dNztqdBh_11" d="M316.2,144.4L332.8,144.4"></path>
<path class="st0 dNztqdBh_12" d="M436.3,144.4L448,144.4"></path>
<path class="st0 dNztqdBh_13" d="M344.7,66.8L332.8,84.8L352.8,82.2L332.8,103.5"></path>
<style data-made-with="vivus-instant">.dNztqdBh_0{stroke-dasharray:481 483;stroke-dashoffset:482;animation:dNztqdBh_draw 3000ms ease 0ms forwards;}.dNztqdBh_1{stroke-dasharray:282 284;stroke-dashoffset:283;animation:dNztqdBh_draw 3000ms ease 0ms forwards;}.dNztqdBh_2{stroke-dasharray:97 99;stroke-dashoffset:98;animation:dNztqdBh_draw 3000ms ease 0ms forwards;}.dNztqdBh_3{stroke-dasharray:333 335;stroke-dashoffset:334;animation:dNztqdBh_draw 3000ms ease 0ms forwards;}.dNztqdBh_4{stroke-dasharray:203 205;stroke-dashoffset:204;animation:dNztqdBh_draw 3000ms ease 0ms forwards;}.dNztqdBh_5{stroke-dasharray:205 207;stroke-dashoffset:206;animation:dNztqdBh_draw 3000ms ease 0ms forwards;}.dNztqdBh_6{stroke-dasharray:121 123;stroke-dashoffset:122;animation:dNztqdBh_draw 3000ms ease 0ms forwards;}.dNztqdBh_7{stroke-dasharray:770 772;stroke-dashoffset:771;animation:dNztqdBh_draw 3000ms ease 0ms forwards;}.dNztqdBh_8{stroke-dasharray:258 260;stroke-dashoffset:259;animation:dNztqdBh_draw 3000ms ease 0ms forwards;}.dNztqdBh_9{stroke-dasharray:439 441;stroke-dashoffset:440;animation:dNztqdBh_draw 3000ms ease 0ms forwards;}.dNztqdBh_10{stroke-dasharray:48 50;stroke-dashoffset:49;animation:dNztqdBh_draw 3000ms ease 0ms forwards;}.dNztqdBh_11{stroke-dasharray:17 19;stroke-dashoffset:18;animation:dNztqdBh_draw 3000ms ease 0ms forwards;}.dNztqdBh_12{stroke-dasharray:12 14;stroke-dashoffset:13;animation:dNztqdBh_draw 3000ms ease 0ms forwards;}.dNztqdBh_13{stroke-dasharray:71 73;stroke-dashoffset:72;animation:dNztqdBh_draw 3000ms ease 0ms forwards;}@keyframes dNztqdBh_draw{100%{stroke-dashoffset:0;}}@keyframes dNztqdBh_fade{0%{stroke-opacity:1;}94.44444444444444%{stroke-opacity:1;}100%{stroke-opacity:0;}}</style></svg>
