<?xml version="1.0" encoding="utf-8"?>
<!-- Generator: Adobe Illustrator 24.2.1, SVG Export Plug-In . SVG Version: 6.00 Build 0)  -->
<svg version="1.1" id="Ebene_1" xmlns="http://www.w3.org/2000/svg" xmlns:xlink="http://www.w3.org/1999/xlink" x="0px" y="0px"
	 width="512px" height="512px" viewBox="0 0 512 512" style="enable-background:new 0 0 512 512;" xml:space="preserve">
<style type="text/css">
	.st0{fill:none;stroke:#9CC425;stroke-width:10;stroke-linecap:round;stroke-miterlimit:10;}
</style>
<path class="st0" d="M258.6,87.9C277.7,42.1,322.8,10,375.5,10C445.3,10,502,66.6,502,136.5S445.3,263,375.5,263
	c-15.9,0-31.2-2.9-45.2-8.3"/>
<g>
	<polyline class="st0" points="353,212 375.5,191 375.5,81 396,62 	"/>
	<line class="st0" x1="396" y1="212" x2="375.5" y2="191"/>
	<line class="st0" x1="353" y1="62" x2="375.5" y2="81"/>
</g>
<g>
	<polyline class="st0" points="299.5,154.4 328.8,163.8 424.8,110 451.4,118.6 	"/>
	<line class="st0" x1="320.6" y1="191.9" x2="328.8" y2="163.8"/>
	<line class="st0" x1="430.4" y1="81.1" x2="424.8" y2="110"/>
</g>
<g>
	<polyline class="st0" points="321.1,81.1 328.1,111 423.6,165.7 429.9,192.9 	"/>
	<line class="st0" x1="299.7" y1="118.4" x2="328.1" y2="111"/>
	<line class="st0" x1="451.2" y1="155.6" x2="423.6" y2="165.7"/>
</g>
<path class="st0" d="M165,10L10,291c0,0-11,15,15,58c0,0,62,37.6,75,58l5,11c0,0-4,16.5-1,25.3s47,59.7,54,58.7s32-13,39-30
	s10.9-40,31.9-51c0,0,11.1-6,5.1-40s-3-53,14-72s39-53,39-53s15-13.8,0-33.9c-15-20.1-39-57.1-48-85.6C239,136.5,188,19,165,10z"/>
<path class="st0" d="M40,300c0,0-1,17,20,31l51.5,36l-6.5,51"/>
<path class="st0" d="M136,240c0,0-21.2,101.2-24.5,127"/>
<path class="st0" d="M111.5,408l45.5,49c4.1,5,4.1,5,4.1,5s6.8-5.7,11.9-24.7c5.1-19,16.2-35.6,29.2-41.9c12.9-6.3,32-13.2,32-13.2"
	/>
<path class="st0" d="M205.1,273.2c0,0,21.7,57.1,26.7,91.9"/>
<path class="st0" d="M257.7,240c0,0-37.6,50.6-42.5,53.3"/>
</svg>
