<!--?xml version="1.0" encoding="utf-8"?-->
<!-- Generator: Adobe Illustrator 24.2.1, SVG Export Plug-In . SVG Version: 6.00 Build 0)  -->
<svg version="1.1" id="Ebene_1" xmlns="http://www.w3.org/2000/svg" xmlns:xlink="http://www.w3.org/1999/xlink" x="0px" y="0px" width="512px" height="512px" viewBox="0 0 512 512" style="" xml:space="preserve">
<style type="text/css">
	.st0{fill:none;stroke:#9CC425;stroke-width:10;stroke-linecap:round;stroke-miterlimit:10;}
</style>
<path class="st0 iTOlPDyq_0" d="M258.6,87.9C277.7,42.1,322.8,10,375.5,10C445.3,10,502,66.6,502,136.5S445.3,263,375.5,263
	c-15.9,0-31.2-2.9-45.2-8.3"></path>
<g>
	<path class="st0 iTOlPDyq_1" d="M353,212L375.5,191L375.5,81L396,62"></path>
	<path class="st0 iTOlPDyq_2" d="M396,212L375.5,191"></path>
	<path class="st0 iTOlPDyq_3" d="M353,62L375.5,81"></path>
</g>
<g>
	<path class="st0 iTOlPDyq_4" d="M299.5,154.4L328.8,163.8L424.8,110L451.4,118.6"></path>
	<path class="st0 iTOlPDyq_5" d="M320.6,191.9L328.8,163.8"></path>
	<path class="st0 iTOlPDyq_6" d="M430.4,81.1L424.8,110"></path>
</g>
<g>
	<path class="st0 iTOlPDyq_7" d="M321.1,81.1L328.1,111L423.6,165.7L429.9,192.9"></path>
	<path class="st0 iTOlPDyq_8" d="M299.7,118.4L328.1,111"></path>
	<path class="st0 iTOlPDyq_9" d="M451.2,155.6L423.6,165.7"></path>
</g>
<path class="st0 iTOlPDyq_10" d="M165,10L10,291c0,0-11,15,15,58c0,0,62,37.6,75,58l5,11c0,0-4,16.5-1,25.3s47,59.7,54,58.7s32-13,39-30
	s10.9-40,31.9-51c0,0,11.1-6,5.1-40s-3-53,14-72s39-53,39-53s15-13.8,0-33.9c-15-20.1-39-57.1-48-85.6C239,136.5,188,19,165,10z"></path>
<path class="st0 iTOlPDyq_11" d="M40,300c0,0-1,17,20,31l51.5,36l-6.5,51"></path>
<path class="st0 iTOlPDyq_12" d="M136,240c0,0-21.2,101.2-24.5,127"></path>
<path class="st0 iTOlPDyq_13" d="M111.5,408l45.5,49c4.1,5,4.1,5,4.1,5s6.8-5.7,11.9-24.7c5.1-19,16.2-35.6,29.2-41.9c12.9-6.3,32-13.2,32-13.2"></path>
<path class="st0 iTOlPDyq_14" d="M205.1,273.2c0,0,21.7,57.1,26.7,91.9"></path>
<path class="st0 iTOlPDyq_15" d="M257.7,240c0,0-37.6,50.6-42.5,53.3"></path>
<style data-made-with="vivus-instant">.iTOlPDyq_0{stroke-dasharray:593 595;stroke-dashoffset:594;animation:iTOlPDyq_draw 3000ms ease 0ms forwards;}.iTOlPDyq_1{stroke-dasharray:169 171;stroke-dashoffset:170;animation:iTOlPDyq_draw 3000ms ease 0ms forwards;}.iTOlPDyq_2{stroke-dasharray:30 32;stroke-dashoffset:31;animation:iTOlPDyq_draw 3000ms ease 0ms forwards;}.iTOlPDyq_3{stroke-dasharray:30 32;stroke-dashoffset:31;animation:iTOlPDyq_draw 3000ms ease 0ms forwards;}.iTOlPDyq_4{stroke-dasharray:169 171;stroke-dashoffset:170;animation:iTOlPDyq_draw 3000ms ease 0ms forwards;}.iTOlPDyq_5{stroke-dasharray:30 32;stroke-dashoffset:31;animation:iTOlPDyq_draw 3000ms ease 0ms forwards;}.iTOlPDyq_6{stroke-dasharray:30 32;stroke-dashoffset:31;animation:iTOlPDyq_draw 3000ms ease 0ms forwards;}.iTOlPDyq_7{stroke-dasharray:169 171;stroke-dashoffset:170;animation:iTOlPDyq_draw 3000ms ease 0ms forwards;}.iTOlPDyq_8{stroke-dasharray:30 32;stroke-dashoffset:31;animation:iTOlPDyq_draw 3000ms ease 0ms forwards;}.iTOlPDyq_9{stroke-dasharray:30 32;stroke-dashoffset:31;animation:iTOlPDyq_draw 3000ms ease 0ms forwards;}.iTOlPDyq_10{stroke-dasharray:1177 1179;stroke-dashoffset:1178;animation:iTOlPDyq_draw 3000ms ease 0ms forwards;}.iTOlPDyq_11{stroke-dasharray:153 155;stroke-dashoffset:154;animation:iTOlPDyq_draw 3000ms ease 0ms forwards;}.iTOlPDyq_12{stroke-dasharray:130 132;stroke-dashoffset:131;animation:iTOlPDyq_draw 3000ms ease 0ms forwards;}.iTOlPDyq_13{stroke-dasharray:189 191;stroke-dashoffset:190;animation:iTOlPDyq_draw 3000ms ease 0ms forwards;}.iTOlPDyq_14{stroke-dasharray:96 98;stroke-dashoffset:97;animation:iTOlPDyq_draw 3000ms ease 0ms forwards;}.iTOlPDyq_15{stroke-dasharray:69 71;stroke-dashoffset:70;animation:iTOlPDyq_draw 3000ms ease 0ms forwards;}@keyframes iTOlPDyq_draw{100%{stroke-dashoffset:0;}}@keyframes iTOlPDyq_fade{0%{stroke-opacity:1;}94.44444444444444%{stroke-opacity:1;}100%{stroke-opacity:0;}}</style></svg>
