<?xml version="1.0" encoding="utf-8"?>
<!-- Generator: Adobe Illustrator 24.2.1, SVG Export Plug-In . SVG Version: 6.00 Build 0)  -->
<svg version="1.1" id="Ebene_1" xmlns="http://www.w3.org/2000/svg" xmlns:xlink="http://www.w3.org/1999/xlink" x="0px" y="0px"
	 width="512px" height="512px" viewBox="0 0 512 512" style="enable-background:new 0 0 512 512;" xml:space="preserve">
<style type="text/css">
	.st0{fill:none;stroke:#9CC425;stroke-width:10;stroke-linecap:round;stroke-linejoin:round;stroke-miterlimit:10;}
</style>
<circle class="st0" cx="240.7" cy="61.6" r="48.7"/>
<path class="st0" d="M316,214.2c20.4-59.8-15.6-73.2-15.6-73.2L266,197.7l-79,38.9c0,0-17.4,8.3-27.4-10.2s8.3-31.2,8.3-31.2
	l67.6-34.2c0,0,39-85.1,70.7-80.5s79.6,34.2,79.6,80.5s0,79.1,0,79.1"/>
<path class="st0" d="M232.4,214.2h94.1c0,0,45.6,7.1,52.2,25.9H470c0,0,33.8,4.8,35.1,42.4H148.2v56.1l-24.9,56.1
	c0,0-12,16.1-27.4,6.4s-10.2-24.9-10.2-24.9l15.3-37.6V232.9c0,0,9.9-18.7,55.6-18.7"/>
<circle class="st0" cx="58" cy="239.8" r="43"/>
<rect x="15.5" y="282.7" class="st0" width="489.5" height="60.9"/>
<rect x="423.1" y="343.6" class="st0" width="47.8" height="149.4"/>
<polyline class="st0" points="48.1,343.6 48.1,493 95.9,493 95.9,401 "/>
<path class="st0" d="M261.2,343.6l-16.7,23c0,0-6.5,7.8-6.5,28.4s0,78.6,0,78.6s3.6,21.2,23.1,19.4c19.5-1.9,23.1-20.3,23.1-20.3
	v-79.5l49-49.6"/>
<path class="st0" d="M322.9,343.6l-8.9,55.9l13.9,78c0,0,11.8,19.1,30,15.5c18.1-3.6,17.5-24.8,17.5-24.8l-11.5-70.7l10.3-53.9"/>
</svg>
