<!--?xml version="1.0" encoding="utf-8"?-->
<!-- Generator: Adobe Illustrator 24.2.1, SVG Export Plug-In . SVG Version: 6.00 Build 0)  -->
<svg version="1.1" id="Ebene_1" xmlns="http://www.w3.org/2000/svg" xmlns:xlink="http://www.w3.org/1999/xlink" x="0px" y="0px" width="512px" height="512px" viewBox="0 0 512 512" style="" xml:space="preserve">
<style type="text/css">
	.st0{fill:none;stroke:#9CC425;stroke-width:10;stroke-linecap:round;stroke-linejoin:round;stroke-miterlimit:10;}
</style>
<path class="st0 kYFTmuYt_0" d="M192,61.6A48.7,48.7 0,1,1 289.4,61.6A48.7,48.7 0,1,1 192,61.6"></path>
<path class="st0 kYFTmuYt_1" d="M316,214.2c20.4-59.8-15.6-73.2-15.6-73.2L266,197.7l-79,38.9c0,0-17.4,8.3-27.4-10.2s8.3-31.2,8.3-31.2
	l67.6-34.2c0,0,39-85.1,70.7-80.5s79.6,34.2,79.6,80.5s0,79.1,0,79.1"></path>
<path class="st0 kYFTmuYt_2" d="M232.4,214.2h94.1c0,0,45.6,7.1,52.2,25.9H470c0,0,33.8,4.8,35.1,42.4H148.2v56.1l-24.9,56.1
	c0,0-12,16.1-27.4,6.4s-10.2-24.9-10.2-24.9l15.3-37.6V232.9c0,0,9.9-18.7,55.6-18.7"></path>
<path class="st0 kYFTmuYt_3" d="M15,239.8A43,43 0,1,1 101,239.8A43,43 0,1,1 15,239.8"></path>
<path class="st0 kYFTmuYt_4" width="489.5" height="60.9" d="M15.5 282.7 L505 282.7 L505 343.59999999999997 L15.5 343.59999999999997 Z"></path>
<path class="st0 kYFTmuYt_5" width="47.8" height="149.4" d="M423.1 343.6 L470.90000000000003 343.6 L470.90000000000003 493 L423.1 493 Z"></path>
<path class="st0 kYFTmuYt_6" d="M48.1,343.6L48.1,493L95.9,493L95.9,401"></path>
<path class="st0 kYFTmuYt_7" d="M261.2,343.6l-16.7,23c0,0-6.5,7.8-6.5,28.4s0,78.6,0,78.6s3.6,21.2,23.1,19.4c19.5-1.9,23.1-20.3,23.1-20.3
	v-79.5l49-49.6"></path>
<path class="st0 kYFTmuYt_8" d="M322.9,343.6l-8.9,55.9l13.9,78c0,0,11.8,19.1,30,15.5c18.1-3.6,17.5-24.8,17.5-24.8l-11.5-70.7l10.3-53.9"></path>
<style data-made-with="vivus-instant">.kYFTmuYt_0{stroke-dasharray:307 309;stroke-dashoffset:308;animation:kYFTmuYt_draw 3000ms ease 0ms forwards;}.kYFTmuYt_1{stroke-dasharray:694 696;stroke-dashoffset:695;animation:kYFTmuYt_draw 3000ms ease 0ms forwards;}.kYFTmuYt_2{stroke-dasharray:1048 1050;stroke-dashoffset:1049;animation:kYFTmuYt_draw 3000ms ease 0ms forwards;}.kYFTmuYt_3{stroke-dasharray:271 273;stroke-dashoffset:272;animation:kYFTmuYt_draw 3000ms ease 0ms forwards;}.kYFTmuYt_4{stroke-dasharray:1101 1103;stroke-dashoffset:1102;animation:kYFTmuYt_draw 3000ms ease 0ms forwards;}.kYFTmuYt_5{stroke-dasharray:395 397;stroke-dashoffset:396;animation:kYFTmuYt_draw 3000ms ease 0ms forwards;}.kYFTmuYt_6{stroke-dasharray:290 292;stroke-dashoffset:291;animation:kYFTmuYt_draw 3000ms ease 0ms forwards;}.kYFTmuYt_7{stroke-dasharray:353 355;stroke-dashoffset:354;animation:kYFTmuYt_draw 3000ms ease 0ms forwards;}.kYFTmuYt_8{stroke-dasharray:332 334;stroke-dashoffset:333;animation:kYFTmuYt_draw 3000ms ease 0ms forwards;}@keyframes kYFTmuYt_draw{100%{stroke-dashoffset:0;}}@keyframes kYFTmuYt_fade{0%{stroke-opacity:1;}94.44444444444444%{stroke-opacity:1;}100%{stroke-opacity:0;}}</style></svg>
