<!--?xml version="1.0" encoding="utf-8"?-->
<!-- Generator: Adobe Illustrator 24.2.1, SVG Export Plug-In . SVG Version: 6.00 Build 0)  -->
<svg version="1.1" id="Layer_1" xmlns="http://www.w3.org/2000/svg" xmlns:xlink="http://www.w3.org/1999/xlink" x="0px" y="0px" width="512px" height="512px" viewBox="0 0 512 512" style="" xml:space="preserve">
<style type="text/css">
	.st0{fill:none;stroke:#9CC425;stroke-width:10;stroke-miterlimit:10;}
	.st1{fill:none;stroke:#9CC425;stroke-width:10;stroke-linecap:round;stroke-miterlimit:10;}
</style>
<path class="st0 XOLXsKlb_0" d="M155.10000000000002,66.8A50.8,50.8 0,1,1 256.7,66.8A50.8,50.8 0,1,1 155.10000000000002,66.8"></path>
<path class="st0 XOLXsKlb_1" d="M196,150c0,0-10-6-19,0s-82,82-82,82s-17,10,0,31s51.6,51.6,50.3,59.8s-19.3,69.8-29.3,89S95,452,95,452
	s-14.5,28,10.8,41s34.2,0,43.2-13c0,0,34-49,47-87s2.9-40,14.9-40.3c25.1-0.5,66.7-3.6,76.9,0.3c6.6,2.6,1.4,17.8,3.7,45.2
	c1.1,12.4,8.3,17.5,12.8,21.4c5.5,4.7,13.1,7.4,18.5,7.4c4.5,0,10.8-0.9,14.4-2.5c7.2-3.2,14.8-10.6,16.8-25.6s3.8-80.1,0-93
	c-4.8-16.3-15.3-24.8-29.3-24.9c-72.3-0.5-103.5-1.1-102.4-1.1c0,0-0.7-59,0-81c0.7-22-0.3-36-8.3-41S196,150,196,150z"></path>
<path class="st1 XOLXsKlb_2" d="M171,250.4l41,41.6c0,0,30.3,42.8,3.8,54.9c-40.5,18.5-56.6-15.8-75.3-33.8"></path>
<path class="st0 XOLXsKlb_3" d="M226.7,495.8h195c0,0,0.5-25.3-12.3-41.2c-11.4-14.2-32.6-26.1-43.6-26.6c-11-0.5-89.7,0-89.7,0
	s-21.5,6.6-31.8,18.8C232.8,460.3,226.7,469.7,226.7,495.8z"></path>
<style data-made-with="vivus-instant">.XOLXsKlb_0{stroke-dasharray:320 322;stroke-dashoffset:321;animation:XOLXsKlb_draw 3000ms ease 0ms forwards;}.XOLXsKlb_1{stroke-dasharray:1232 1234;stroke-dashoffset:1233;animation:XOLXsKlb_draw 3000ms ease 0ms forwards;}.XOLXsKlb_2{stroke-dasharray:213 215;stroke-dashoffset:214;animation:XOLXsKlb_draw 3000ms ease 0ms forwards;}.XOLXsKlb_3{stroke-dasharray:472 474;stroke-dashoffset:473;animation:XOLXsKlb_draw 3000ms ease 0ms forwards;}@keyframes XOLXsKlb_draw{100%{stroke-dashoffset:0;}}@keyframes XOLXsKlb_fade{0%{stroke-opacity:1;}94.44444444444444%{stroke-opacity:1;}100%{stroke-opacity:0;}}</style></svg>
