<?xml version="1.0" encoding="utf-8"?>
<!-- Generator: Adobe Illustrator 24.2.1, SVG Export Plug-In . SVG Version: 6.00 Build 0)  -->
<svg version="1.1" id="Layer_1" xmlns="http://www.w3.org/2000/svg" xmlns:xlink="http://www.w3.org/1999/xlink" x="0px" y="0px"
	 width="512px" height="512px" viewBox="0 0 512 512" style="enable-background:new 0 0 512 512;" xml:space="preserve">
<style type="text/css">
	.st0{fill:none;stroke:#9CC425;stroke-width:10;stroke-linecap:round;stroke-miterlimit:10;}
	.st1{fill:none;stroke:#9CC425;stroke-width:10;stroke-linecap:round;stroke-linejoin:round;stroke-miterlimit:10;}
</style>
<path class="st0" d="M71.8,161.4"/>
<g>
	<path class="st1" d="M157.2,301c0,0-22.8-5.8-19.7-31.6s30.5-31.6,30.5-31.6h78.5l52.7-50.6c0,0,13.7-6.3,31.6-6.3
		c0,0-6.3-22.1,18.4-35.8l-7.9-57.9c0,0,6.3-21.1,16.9,0l9.5,57.9c0,0,24.7-3.7,30.5,22.1c0,0,24.2,6.8,6.3,35.8
		c0,0-15.3,46.3-65.8,11.6c0,0-13.2-14.2-61.1,47.1h174.8c0,0,25.3,26.1,0,39.2L157.2,301z"/>
	<path class="st1" d="M355.2,205.8l-5.2-38.7l27.4-3.2l6.8,40.5C384.3,204.5,366.8,215.9,355.2,205.8z"/>
</g>
<circle class="st0" cx="84.6" cy="271.7" r="28.4"/>
<polygon class="st0" points="28.8,324.7 495.8,324.7 495.8,361.9 62.1,361.9 28.8,361.9 "/>
<line class="st0" x1="62.7" y1="426.7" x2="62.7" y2="361.9"/>
<line class="st0" x1="466" y1="361.9" x2="466" y2="427.2"/>
</svg>
