<!--?xml version="1.0" encoding="utf-8"?-->
<!-- Generator: Adobe Illustrator 24.2.1, SVG Export Plug-In . SVG Version: 6.00 Build 0)  -->
<svg version="1.1" id="Layer_1" xmlns="http://www.w3.org/2000/svg" xmlns:xlink="http://www.w3.org/1999/xlink" x="0px" y="0px" width="512px" height="512px" viewBox="0 0 512 512" style="" xml:space="preserve">
<style type="text/css">
	.st0{fill:none;stroke:#9CC425;stroke-width:10;stroke-linecap:round;stroke-miterlimit:10;}
	.st1{fill:none;stroke:#9CC425;stroke-width:10;stroke-linecap:round;stroke-linejoin:round;stroke-miterlimit:10;}
</style>
<path class="st0 UWdPVvqs_0" d="M71.8,161.4"></path>
<g>
	<path class="st1 UWdPVvqs_1" d="M157.2,301c0,0-22.8-5.8-19.7-31.6s30.5-31.6,30.5-31.6h78.5l52.7-50.6c0,0,13.7-6.3,31.6-6.3
		c0,0-6.3-22.1,18.4-35.8l-7.9-57.9c0,0,6.3-21.1,16.9,0l9.5,57.9c0,0,24.7-3.7,30.5,22.1c0,0,24.2,6.8,6.3,35.8
		c0,0-15.3,46.3-65.8,11.6c0,0-13.2-14.2-61.1,47.1h174.8c0,0,25.3,26.1,0,39.2L157.2,301z"></path>
	<path class="st1 UWdPVvqs_2" d="M355.2,205.8l-5.2-38.7l27.4-3.2l6.8,40.5C384.3,204.5,366.8,215.9,355.2,205.8z"></path>
</g>
<path class="st0 UWdPVvqs_3" d="M56.199999999999996,271.7A28.4,28.4 0,1,1 113,271.7A28.4,28.4 0,1,1 56.199999999999996,271.7"></path>
<path class="st0 UWdPVvqs_4" d="M28.8,324.7L495.8,324.7L495.8,361.9L62.1,361.9L28.8,361.9Z"></path>
<path class="st0 UWdPVvqs_5" d="M62.7,426.7L62.7,361.9"></path>
<path class="st0 UWdPVvqs_6" d="M466,361.9L466,427.2"></path>
<style data-made-with="vivus-instant">.UWdPVvqs_0{stroke-dasharray:0 2;stroke-dashoffset:1;animation:UWdPVvqs_draw 3000ms ease 0ms forwards;}.UWdPVvqs_1{stroke-dasharray:1221 1223;stroke-dashoffset:1222;animation:UWdPVvqs_draw 3000ms ease 0ms forwards;}.UWdPVvqs_2{stroke-dasharray:139 141;stroke-dashoffset:140;animation:UWdPVvqs_draw 3000ms ease 0ms forwards;}.UWdPVvqs_3{stroke-dasharray:179 181;stroke-dashoffset:180;animation:UWdPVvqs_draw 3000ms ease 0ms forwards;}.UWdPVvqs_4{stroke-dasharray:1009 1011;stroke-dashoffset:1010;animation:UWdPVvqs_draw 3000ms ease 0ms forwards;}.UWdPVvqs_5{stroke-dasharray:65 67;stroke-dashoffset:66;animation:UWdPVvqs_draw 3000ms ease 0ms forwards;}.UWdPVvqs_6{stroke-dasharray:66 68;stroke-dashoffset:67;animation:UWdPVvqs_draw 3000ms ease 0ms forwards;}@keyframes UWdPVvqs_draw{100%{stroke-dashoffset:0;}}@keyframes UWdPVvqs_fade{0%{stroke-opacity:1;}94.44444444444444%{stroke-opacity:1;}100%{stroke-opacity:0;}}</style></svg>
