<!--?xml version="1.0" encoding="utf-8"?-->
<!-- Generator: Adobe Illustrator 24.2.1, SVG Export Plug-In . SVG Version: 6.00 Build 0)  -->
<svg version="1.1" id="Ebene_1" xmlns="http://www.w3.org/2000/svg" xmlns:xlink="http://www.w3.org/1999/xlink" x="0px" y="0px" width="512px" height="512px" viewBox="0 0 512 512" style="" xml:space="preserve">
<style type="text/css">
	.st0{fill:none;stroke:#9CC425;stroke-width:10;stroke-linecap:round;stroke-linejoin:round;stroke-miterlimit:10;}
</style>
<path class="st0 XeGWGlJn_0" d="M271.9,99.1V56c0,0,14.2-20.9,29.5-0.6l0.7,52.6c-19.1-20.6-35.7-5.5-35.7-5.5S205,151.8,200,166.4
	s8,68.5,8,68.5c-15.1,66.5-15.6,251.7-15.6,251.7h102.7c6.5-73-30.7-253.2-30.7-253.2l7-18.1L328,173l39.6-79.1V35
	c-16.1-26.2-32.7,0-32.7,0v43.8l-66.5,68.5"></path>
<path class="st0 XeGWGlJn_1" d="M301.4,55.4c0,0,16.6-32.6,33.4,0"></path>
<path class="st0 XeGWGlJn_2" d="M202.9,265.3l35.9,32c0,0,7.6,11.5-5.7,25.8s-25,8.6-25,8.6l-10.4-8.1"></path>
<path class="st0 XeGWGlJn_3" d="M287.5,368.8h-53.1c0,0-10.4-0.8-10.7,14.6s0,38.3,0,38.3s-0.8,7.8,10.7,7.6c11.5-0.3,59.8,0,59.8,0"></path>
<style data-made-with="vivus-instant">.XeGWGlJn_0{stroke-dasharray:1364 1366;stroke-dashoffset:1365;animation:XeGWGlJn_draw 3000ms ease 0ms forwards;}.XeGWGlJn_1{stroke-dasharray:47 49;stroke-dashoffset:48;animation:XeGWGlJn_draw 3000ms ease 0ms forwards;}.XeGWGlJn_2{stroke-dasharray:118 120;stroke-dashoffset:119;animation:XeGWGlJn_draw 3000ms ease 0ms forwards;}.XeGWGlJn_3{stroke-dasharray:187 189;stroke-dashoffset:188;animation:XeGWGlJn_draw 3000ms ease 0ms forwards;}@keyframes XeGWGlJn_draw{100%{stroke-dashoffset:0;}}@keyframes XeGWGlJn_fade{0%{stroke-opacity:1;}94.44444444444444%{stroke-opacity:1;}100%{stroke-opacity:0;}}</style></svg>
