<svg xmlns="http://www.w3.org/2000/svg" xmlns:xlink="http://www.w3.org/1999/xlink" version="1.1" stroke="#000" id="Layer_1" x="0px" y="0px" width="800px" height="800px" viewBox="0 0 800 800" enable-background="new 0 0 800 800" xml:space="preserve">
<path fill="none" stroke-width="28" stroke-miterlimit="10" d="M69.66300000000001,399.999A330.337,330.337 0,1,1 730.337,399.999A330.337,330.337 0,1,1 69.66300000000001,399.999" stroke="#9CC425" style="stroke-dasharray: 2077, 2079; stroke-dashoffset: 0;"/>
<path fill="none" stroke-width="28" stroke-miterlimit="10" d="M247.84300000000002,295.809A42.157,42.157 0,1,1 332.157,295.809A42.157,42.157 0,1,1 247.84300000000002,295.809" stroke="#9CC425" style="stroke-dasharray: 265, 267; stroke-dashoffset: 0;"/>
<path fill="none" stroke-width="28" stroke-miterlimit="10" d="M467.843,295.809A42.157,42.157 0,1,1 552.157,295.809A42.157,42.157 0,1,1 467.843,295.809" stroke="#9CC425" style="stroke-dasharray: 265, 267; stroke-dashoffset: 0;"/>
<path fill="none" stroke-width="28" stroke-miterlimit="10" d="M400.5,561" stroke="#9CC425" style="stroke-dasharray: 0, 2; stroke-dashoffset: 0;"/>
<path fill="none" stroke-width="28" stroke-linecap="round" stroke-linejoin="round" stroke-miterlimit="10" d="  M543.318,473.687H256.682C256.682,473.687,374.201,670.559,543.318,473.687z" stroke="#9CC425" style="stroke-dasharray: 635, 637; stroke-dashoffset: 0;"/>
<path fill="none" stroke-width="28" stroke-miterlimit="10" d="M400.917,561" stroke="#9CC425" style="stroke-dasharray: 0, 2; stroke-dashoffset: 0;"/>
<path fill="none" stroke-width="28" stroke-miterlimit="10" d="M181.5,471" stroke="#9CC425" style="stroke-dasharray: 0, 2; stroke-dashoffset: 0;"/>
</svg>