<!--?xml version="1.0" encoding="utf-8"?-->
<!-- Generator: Adobe Illustrator 24.2.1, SVG Export Plug-In . SVG Version: 6.00 Build 0)  -->
<svg version="1.1" id="Layer_1" xmlns="http://www.w3.org/2000/svg" xmlns:xlink="http://www.w3.org/1999/xlink" x="0px" y="0px" width="512px" height="512px" viewBox="0 0 512 512" style="" xml:space="preserve">
<style type="text/css">
	.st0{fill:none;stroke:#9CC425;stroke-width:10;stroke-miterlimit:10;}
	.st1{fill:none;stroke:#9CC425;stroke-width:10;stroke-linecap:round;stroke-miterlimit:10;}
</style>
<path class="st0 NpfGuCpN_0" d="M287.90000000000003,166.8A23.9,23.9 0,1,1 335.7,166.8A23.9,23.9 0,1,1 287.90000000000003,166.8"></path>
<path class="st1 NpfGuCpN_1" d="M342.7,147.1L374,131"></path>
<path class="st1 NpfGuCpN_2" d="M323,127L326,107"></path>
<path class="st1 NpfGuCpN_3" d="M348.3,171.8L373,176"></path>
<path class="st1 NpfGuCpN_4" d="M304,203L300,222"></path>
<path class="st1 NpfGuCpN_5" d="M279,182.8L251,198"></path>
<path class="st1 NpfGuCpN_6" d="M276,153L256,142.9"></path>
<path class="st1 NpfGuCpN_7" d="M168.9,50.7c0,0,48.2-13,48.2-40.7H296c0,0,0.5,44.3,71.5,45.4c22.6,0.3,66.2,6.5,85.6,31.8
	c18.6,24.3,13.6,67.6,13.6,84.5"></path>
<path class="st1 NpfGuCpN_8" d="M146.2,453c-2.1,11-4.7,49.6-4.7,49.6H256h114.6c1.6-4.7-3.7-39.1-3.7-39.1c-1.6-11-13-78.3-14.1-116
	c-1-37.8,9.9-60.3,9.9-60.3c7.3-24,11-28.2,18.3-55.3s8.9-41.1,8.9-41.1c11,14.5,24.5,108.4,26.1,125.1s-4.2,27.7-5.2,49.6
	s17.7,122.1,17.7,122.1l3.7,16.7h49l1.6-9.9c5.2-47.5,4.2-135.1,2.6-171.1s-15.1-72.5-15.1-72.5l-3-42.8"></path>
<path class="st1 NpfGuCpN_9" d="M256,266.7L256,502.6"></path>
<path class="st1 NpfGuCpN_10" d="M138.7,53.1c0,0-61.4,8.7-74.1,25.3c-3.4,4.4-17,9.1-18,62.6s-2.3,63.1-3.7,76.5c-1.3,13.5-0.5,25.7-2.9,37.2
	c-2.3,11.5-12.3,56.3-13.6,74.1c-1.3,17.7,1.3,171.9,3.9,175.3h48.8c0,0,11.2-54.3,13.6-68.9s8.4-59.5,7.6-70.7
	c-0.8-11.2-4.2-35.7-3.1-49.6s7.8-73.3,12.5-87.4c4.7-14.1,12-30.8,12-30.8s2.1,20.1,7.3,35.7s19.3,52.4,22.2,63.7
	c2.9,11.2,11,42.3,9.4,59.7c-1.6,17.5-8.9,59.7-8.9,59.7"></path>
<path class="st1 NpfGuCpN_11" d="M225,122.2c0,0-12.5,55-47.7,88.2"></path>
<path class="st1 NpfGuCpN_12" d="M293.4,122.2c0,0,12.5,55,47.7,88.2"></path>
<style data-made-with="vivus-instant">.NpfGuCpN_0{stroke-dasharray:151 153;stroke-dashoffset:152;animation:NpfGuCpN_draw 3000ms ease 0ms forwards;}.NpfGuCpN_1{stroke-dasharray:36 38;stroke-dashoffset:37;animation:NpfGuCpN_draw 3000ms ease 0ms forwards;}.NpfGuCpN_2{stroke-dasharray:21 23;stroke-dashoffset:22;animation:NpfGuCpN_draw 3000ms ease 0ms forwards;}.NpfGuCpN_3{stroke-dasharray:26 28;stroke-dashoffset:27;animation:NpfGuCpN_draw 3000ms ease 0ms forwards;}.NpfGuCpN_4{stroke-dasharray:20 22;stroke-dashoffset:21;animation:NpfGuCpN_draw 3000ms ease 0ms forwards;}.NpfGuCpN_5{stroke-dasharray:32 34;stroke-dashoffset:33;animation:NpfGuCpN_draw 3000ms ease 0ms forwards;}.NpfGuCpN_6{stroke-dasharray:23 25;stroke-dashoffset:24;animation:NpfGuCpN_draw 3000ms ease 0ms forwards;}.NpfGuCpN_7{stroke-dasharray:421 423;stroke-dashoffset:422;animation:NpfGuCpN_draw 3000ms ease 0ms forwards;}.NpfGuCpN_8{stroke-dasharray:1264 1266;stroke-dashoffset:1265;animation:NpfGuCpN_draw 3000ms ease 0ms forwards;}.NpfGuCpN_9{stroke-dasharray:236 238;stroke-dashoffset:237;animation:NpfGuCpN_draw 3000ms ease 0ms forwards;}.NpfGuCpN_10{stroke-dasharray:1098 1100;stroke-dashoffset:1099;animation:NpfGuCpN_draw 3000ms ease 0ms forwards;}.NpfGuCpN_11{stroke-dasharray:102 104;stroke-dashoffset:103;animation:NpfGuCpN_draw 3000ms ease 0ms forwards;}.NpfGuCpN_12{stroke-dasharray:102 104;stroke-dashoffset:103;animation:NpfGuCpN_draw 3000ms ease 0ms forwards;}@keyframes NpfGuCpN_draw{100%{stroke-dashoffset:0;}}@keyframes NpfGuCpN_fade{0%{stroke-opacity:1;}94.44444444444444%{stroke-opacity:1;}100%{stroke-opacity:0;}}</style></svg>
