<?xml version="1.0" encoding="utf-8"?>
<!-- Generator: Adobe Illustrator 24.2.1, SVG Export Plug-In . SVG Version: 6.00 Build 0)  -->
<svg version="1.1" id="Layer_1" xmlns="http://www.w3.org/2000/svg" xmlns:xlink="http://www.w3.org/1999/xlink" x="0px" y="0px"
	 width="512px" height="512px" viewBox="0 0 512 512" style="enable-background:new 0 0 512 512;" xml:space="preserve">
<style type="text/css">
	.st0{fill:none;stroke:#9CC425;stroke-width:10;stroke-miterlimit:10;}
	.st1{fill:none;stroke:#9CC425;stroke-width:10;stroke-linecap:round;stroke-miterlimit:10;}
</style>
<circle class="st0" cx="311.8" cy="166.8" r="23.9"/>
<line class="st1" x1="342.7" y1="147.1" x2="374" y2="131"/>
<line class="st1" x1="323" y1="127" x2="326" y2="107"/>
<line class="st1" x1="348.3" y1="171.8" x2="373" y2="176"/>
<line class="st1" x1="304" y1="203" x2="300" y2="222"/>
<line class="st1" x1="279" y1="182.8" x2="251" y2="198"/>
<line class="st1" x1="276" y1="153" x2="256" y2="142.9"/>
<path class="st1" d="M168.9,50.7c0,0,48.2-13,48.2-40.7H296c0,0,0.5,44.3,71.5,45.4c22.6,0.3,66.2,6.5,85.6,31.8
	c18.6,24.3,13.6,67.6,13.6,84.5"/>
<path class="st1" d="M146.2,453c-2.1,11-4.7,49.6-4.7,49.6H256h114.6c1.6-4.7-3.7-39.1-3.7-39.1c-1.6-11-13-78.3-14.1-116
	c-1-37.8,9.9-60.3,9.9-60.3c7.3-24,11-28.2,18.3-55.3s8.9-41.1,8.9-41.1c11,14.5,24.5,108.4,26.1,125.1s-4.2,27.7-5.2,49.6
	s17.7,122.1,17.7,122.1l3.7,16.7h49l1.6-9.9c5.2-47.5,4.2-135.1,2.6-171.1s-15.1-72.5-15.1-72.5l-3-42.8"/>
<line class="st1" x1="256" y1="266.7" x2="256" y2="502.6"/>
<path class="st1" d="M138.7,53.1c0,0-61.4,8.7-74.1,25.3c-3.4,4.4-17,9.1-18,62.6s-2.3,63.1-3.7,76.5c-1.3,13.5-0.5,25.7-2.9,37.2
	c-2.3,11.5-12.3,56.3-13.6,74.1c-1.3,17.7,1.3,171.9,3.9,175.3h48.8c0,0,11.2-54.3,13.6-68.9s8.4-59.5,7.6-70.7
	c-0.8-11.2-4.2-35.7-3.1-49.6s7.8-73.3,12.5-87.4c4.7-14.1,12-30.8,12-30.8s2.1,20.1,7.3,35.7s19.3,52.4,22.2,63.7
	c2.9,11.2,11,42.3,9.4,59.7c-1.6,17.5-8.9,59.7-8.9,59.7"/>
<path class="st1" d="M225,122.2c0,0-12.5,55-47.7,88.2"/>
<path class="st1" d="M293.4,122.2c0,0,12.5,55,47.7,88.2"/>
</svg>
