<!--?xml version="1.0" encoding="utf-8"?-->
<!-- Generator: Adobe Illustrator 24.2.1, SVG Export Plug-In . SVG Version: 6.00 Build 0)  -->
<svg version="1.1" id="Capa_1" xmlns="http://www.w3.org/2000/svg" xmlns:xlink="http://www.w3.org/1999/xlink" x="0px" y="0px" width="235.8px" height="235.8px" viewBox="0 0 235.8 235.8" style="" xml:space="preserve">
<style type="text/css">
	.st0{fill:none;stroke:#9CC425;stroke-width:10;stroke-linecap:round;stroke-miterlimit:10;}
	.st1{fill:none;stroke:#9CC425;stroke-width:10;stroke-linecap:round;stroke-linejoin:round;stroke-miterlimit:10;}
</style>
<path class="st0 IWKtJMTv_0" d="M70.1,11.9c0,0-10,11.6-1.1,32.9c10.4,24.8,6,24,0,35.7"></path>
<path class="st0 IWKtJMTv_1" d="M122.5,11.9c0,0-10,11.6-1.1,32.9c10.4,24.8,6,24,0,35.7"></path>
<path class="st0 IWKtJMTv_2" d="M170.3,11.9c0,0-10,11.6-1.1,32.9c10.4,24.8,6,24,0,35.7"></path>
<g>
	<path class="st1 IWKtJMTv_3" d="M45.2,171.3h-20c0,0-9.7-6.6-0.3-13.7l24.4-0.3c-9.6,8.9-2.6,16.6-2.6,16.6s22.9,28.5,29.7,30.8
		c6.8,2.3,31.8-3.7,31.8-3.7c30.9,7,116.8,7.2,116.8,7.2v-47.7c-33.9-3-117.5,14.2-117.5,14.2l-8.4-3.2l-19.6-26.3l-36.7-18.4H15.5
		c-12.2,7.5,0,15.2,0,15.2h20.3l31.8,30.9"></path>
	<path class="st1 IWKtJMTv_4" d="M24.9,157.6c0,0-15.1-7.7,0-15.5"></path>
</g>
<style data-made-with="vivus-instant">.IWKtJMTv_0{stroke-dasharray:73 75;stroke-dashoffset:74;animation:IWKtJMTv_draw 3000ms ease 0ms forwards;}.IWKtJMTv_1{stroke-dasharray:73 75;stroke-dashoffset:74;animation:IWKtJMTv_draw 3000ms ease 0ms forwards;}.IWKtJMTv_2{stroke-dasharray:73 75;stroke-dashoffset:74;animation:IWKtJMTv_draw 3000ms ease 0ms forwards;}.IWKtJMTv_3{stroke-dasharray:633 635;stroke-dashoffset:634;animation:IWKtJMTv_draw 3000ms ease 0ms forwards;}.IWKtJMTv_4{stroke-dasharray:22 24;stroke-dashoffset:23;animation:IWKtJMTv_draw 3000ms ease 0ms forwards;}@keyframes IWKtJMTv_draw{100%{stroke-dashoffset:0;}}@keyframes IWKtJMTv_fade{0%{stroke-opacity:1;}94.44444444444444%{stroke-opacity:1;}100%{stroke-opacity:0;}}</style></svg>
