<?xml version="1.0" encoding="utf-8"?>
<!-- Generator: Adobe Illustrator 24.1.2, SVG Export Plug-In . SVG Version: 6.00 Build 0)  -->
<svg version="1.1" id="Capa_1" xmlns="http://www.w3.org/2000/svg" xmlns:xlink="http://www.w3.org/1999/xlink" x="0px" y="0px"
	 viewBox="0 0 92.1 92.1" style="enable-background:new 0 0 92.1 92.1;" xml:space="preserve">
<style type="text/css">
	.st0{fill:#9CC425;}
</style>
<g>
	<g>
		<path class="st0" d="M2.1,89.1c1.4,1.4,3.3,2.1,5.2,2.1c1.9,0,3.7-0.7,5.2-2.1l33.6-33.6l33.6,33.6c1.4,1.4,3.3,2.1,5.2,2.1
			c1.9,0,3.7-0.7,5.2-2.1c2.9-2.9,2.9-7.5,0-10.3L56.4,45.2l31.9-31.9c2.9-2.9,2.9-7.5,0-10.3c-2.9-2.9-7.5-2.9-10.3,0L46.1,34.9
			L14.2,3C11.3,0.1,6.7,0.1,3.9,3C1,5.9,1,10.5,3.9,13.3l31.9,31.9L2.1,78.8C-0.7,81.6-0.7,86.3,2.1,89.1z"/>
	</g>
</g>
</svg>
