<svg id="Layer_1" data-name="Layer 1" xmlns="http://www.w3.org/2000/svg" viewBox="0 0 384 301.3"><path d="M356,97H28A28,28,0,0,1,0,69H0A28,28,0,0,1,28,41H356a28,28,0,0,1,28,28h0A28,28,0,0,1,356,97Z" transform="translate(0 -41)" style="fill:#fff"/><path d="M356,219.7H28a28,28,0,0,1-28-28H0a28,28,0,0,1,28-28H356a28,28,0,0,1,28,28h0A28,28,0,0,1,356,219.7Z" transform="translate(0 -41)" style="fill:#fff"/><path d="M356,342.3H28a28,28,0,0,1-28-28H0a28,28,0,0,1,28-28H356a28,28,0,0,1,28,28h0A28,28,0,0,1,356,342.3Z" transform="translate(0 -41)" style="fill:#fff"/></svg>