<?xml version="1.0" encoding="utf-8"?>
<!-- Generator: Adobe Illustrator 24.1.2, SVG Export Plug-In . SVG Version: 6.00 Build 0)  -->
<svg version="1.1" id="Layer_1" xmlns="http://www.w3.org/2000/svg" xmlns:xlink="http://www.w3.org/1999/xlink" x="0px" y="0px"
	 viewBox="0 0 384 384" style="enable-background:new 0 0 384 384;" xml:space="preserve">
<style type="text/css">
	.st0{fill:#FFFFFF;}
</style>
<path class="st0" d="M356,97H28C12.5,97,0,84.5,0,69l0,0c0-15.5,12.5-28,28-28h328c15.5,0,28,12.5,28,28l0,0
	C384,84.5,371.5,97,356,97z"/>
<path class="st0" d="M356,219.7H28c-15.5,0-28-12.5-28-28l0,0c0-15.5,12.5-28,28-28h328c15.5,0,28,12.5,28,28l0,0
	C384,207.1,371.5,219.7,356,219.7z"/>
<path class="st0" d="M356,342.3H28c-15.5,0-28-12.5-28-28l0,0c0-15.5,12.5-28,28-28h328c15.5,0,28,12.5,28,28l0,0
	C384,329.8,371.5,342.3,356,342.3z"/>
</svg>
